<svg width="243" height="98" viewBox="0 0 243 98" fill="none" xmlns="http://www.w3.org/2000/svg">
<path d="M24.6423 0C24.9361 0.138142 25.203 0.323254 25.4312 0.547324L51.8668 32.0189C52.9724 33.2401 53.993 34.5291 54.922 35.8776C50.6189 35.9871 46.2297 35.8776 41.8979 35.8776C41.2251 35.9257 40.5486 35.8796 39.8898 35.7408C39.3988 35.3361 38.9606 34.8767 38.5845 34.3724C34.0662 28.8991 29.5049 23.5626 24.9866 18.1304C24.4846 17.6241 24.628 16.8989 24.585 16.2694C24.6423 10.9056 24.5419 5.44595 24.6423 0Z" fill="#AC1A2F"/>
<path d="M51.4939 22.1259C57.7478 14.7643 63.887 7.32056 70.1408 0C70.3539 0.897079 70.4216 1.82001 70.3416 2.73666C70.3416 7.49845 70.3416 12.315 70.3416 17.022C70.442 18.0756 69.4523 18.7461 68.9072 19.5261C67.7595 20.9854 66.5339 22.3875 65.2352 23.7268C62.596 24.0005 59.885 23.7268 57.2171 23.8363C54.8934 23.8363 52.5554 23.9184 50.2317 23.7542C50.6186 23.1883 51.0401 22.6446 51.4939 22.1259Z" fill="#AC1A2F"/>
<path d="M0 23.9057C4.30313 23.7278 8.721 23.9057 13.0815 23.8236C13.9565 23.8236 15.0896 23.6457 15.6203 24.4941C20.8797 30.7611 26.1391 37.0371 31.3985 43.3223C31.5971 43.5325 31.7481 43.7795 31.8419 44.0479C31.9357 44.3164 31.9703 44.6004 31.9435 44.8822C31.9435 47.7557 31.9435 50.6155 31.9435 53.489C31.8987 53.9243 31.6957 54.3308 31.3698 54.6384L15.7638 73.2477C15.6044 73.5174 15.3664 73.7371 15.0787 73.8804C14.791 74.0237 14.466 74.0843 14.1429 74.055C9.43817 74.055 4.74778 74.055 0.0430295 74.055C0.423758 73.3174 0.906158 72.6318 1.47741 72.0162C7.67391 64.6546 13.8895 57.2884 20.1243 49.9177C20.4129 49.6392 20.6119 49.2879 20.698 48.9051C20.2939 48.2232 19.813 47.5854 19.2637 47.0031L1.93637 26.3687C1.2327 25.5909 0.585749 24.768 0 23.9057Z" fill="#AC1A2F"/>
<path d="M79.8667 24C80.5231 23.82 81.2092 23.7597 81.8891 23.8221C86.1923 23.8221 90.6388 23.7264 94.9993 23.9042C94.3289 24.8927 93.586 25.8347 92.776 26.723C86.7517 33.9113 80.7225 41.0995 74.6885 48.2878C74.5971 48.3578 74.5216 48.4449 74.4667 48.5437C74.4118 48.6425 74.3786 48.751 74.3692 48.8624C74.3598 48.9739 74.3744 49.086 74.412 49.1919C74.4497 49.2979 74.5096 49.3953 74.5882 49.4783C80.6986 56.7989 86.8377 64.0784 92.9625 71.3716C93.7287 72.1747 94.393 73.0611 94.9419 74.0125C90.2372 74.0125 85.5324 74.0125 80.8277 74.0125C80.5458 74.049 80.259 74.0047 80.0036 73.8853C79.7482 73.7659 79.5358 73.5768 79.3933 73.342L63.5291 54.3359C62.9984 53.8159 63.1131 53.0633 63.0844 52.4065C63.0844 49.7657 63.0844 47.1111 63.0844 44.4702C63.0809 44.2499 63.1235 44.0311 63.2097 43.8267C63.2959 43.6223 63.424 43.4364 63.5865 43.2798L78.2602 25.7104C78.7476 25.1008 79.2848 24.5289 79.8667 24Z" fill="#AC1A2F"/>
<path d="M38.9986 62.9296C39.4002 62.4507 39.8449 61.8486 40.5764 61.9034C45.2047 61.9034 49.8282 61.9034 54.4469 61.9034C55.1497 61.9034 55.58 62.4644 55.9816 62.9159C60.4186 68.2068 64.8604 73.4886 69.307 78.7612C69.8233 79.4317 70.6123 80.1296 70.4832 80.9916C70.4832 85.4159 70.4832 89.8356 70.4832 94.2507C70.5394 95.4744 70.4963 96.7005 70.3541 97.9178C69.5444 97.1605 68.8008 96.3413 68.1308 95.4685L49.3548 73.2195C48.8723 72.593 48.34 72.0029 47.7627 71.4543C47.2893 71.2491 46.9881 71.687 46.7299 71.9743L27.0933 95.3864C26.3474 96.2621 25.6589 97.1789 24.8126 97.9999C24.6624 97.5582 24.5897 97.0959 24.5975 96.6316C24.5975 91.3225 24.5975 86.0134 24.5975 80.7179C24.5943 80.5029 24.6357 80.2895 24.7194 80.0898C24.8031 79.8902 24.9274 79.7084 25.0852 79.5548C29.723 73.9903 34.3608 68.4486 38.9986 62.9296Z" fill="#AC1A2F"/>
<path d="M116.146 29.1H130.738V36.282H124.582V45.915H130.51V53.04H124.582V69H116.146V29.1ZM149.712 69H141.447L141.048 63.528H137.457L137.058 69H129.819L134.322 29.1H145.152L149.712 69ZM139.281 40.329L138.027 56.517H140.478L139.281 40.329ZM168.222 69H160.527L157.05 52.299L157.278 69H150.324V29.1H158.361L161.382 44.319L161.268 29.1H168.222V69ZM182.064 69H173.628V36.282H169.239V29.1H186.453V36.282H182.064V69ZM204.486 69H196.221L195.822 63.528H192.231L191.832 69H184.593L189.096 29.1H199.926L204.486 69ZM194.055 40.329L192.801 56.517H195.252L194.055 40.329ZM219.925 47.853C222.262 49.335 223.003 51.273 223.003 54.123V61.875C223.003 66.891 220.609 69.285 215.593 69.285H212.116C207.157 69.285 204.706 66.891 204.706 61.875V53.724H212.857V61.875C212.857 62.331 213.085 62.502 213.541 62.502H214.054C214.51 62.502 214.738 62.331 214.738 61.875V54.921C214.738 54.294 214.51 54.009 213.997 53.667L207.784 49.734C205.39 48.252 204.706 46.371 204.706 43.464V36.225C204.706 31.209 207.157 28.815 212.116 28.815H215.479C220.495 28.815 222.946 31.209 222.946 36.225V43.806H214.738V36.225C214.738 35.769 214.567 35.598 214.111 35.598H213.598C213.199 35.598 212.971 35.769 212.971 36.225V42.666C212.971 43.236 213.199 43.578 213.655 43.863L219.925 47.853ZM236.569 69H228.133V55.947L222.547 29.1H231.268L232.864 41.925L234.574 29.1H242.155L236.569 55.491V69Z" fill="white"/>
</svg>
