<svg width="128" height="165" viewBox="0 0 128 165" fill="none" xmlns="http://www.w3.org/2000/svg">
<path d="M41.6423 0C41.9361 0.138142 42.203 0.323254 42.4312 0.547324L68.8668 32.0189C69.9724 33.2401 70.993 34.5291 71.922 35.8776C67.6189 35.9871 63.2297 35.8776 58.8979 35.8776C58.2251 35.9257 57.5486 35.8796 56.8898 35.7408C56.3988 35.3361 55.9606 34.8767 55.5845 34.3724C51.0662 28.8991 46.5049 23.5626 41.9866 18.1304C41.4846 17.6241 41.628 16.8989 41.585 16.2694C41.6423 10.9056 41.5419 5.44595 41.6423 0Z" fill="#AC1A2F"/>
<path d="M68.4939 22.1259C74.7478 14.7643 80.887 7.32056 87.1408 0C87.3539 0.897079 87.4216 1.82001 87.3416 2.73666C87.3416 7.49845 87.3416 12.315 87.3416 17.022C87.442 18.0756 86.4523 18.7461 85.9072 19.5261C84.7595 20.9854 83.5338 22.3875 82.2352 23.7268C79.596 24.0005 76.885 23.7268 74.2171 23.8363C71.8934 23.8363 69.5554 23.9184 67.2317 23.7542C67.6186 23.1883 68.0401 22.6446 68.4939 22.1259Z" fill="#AC1A2F"/>
<path d="M17 23.9057C21.3031 23.7278 25.721 23.9057 30.0815 23.8236C30.9565 23.8236 32.0896 23.6457 32.6203 24.4941C37.8797 30.7611 43.1391 37.0371 48.3985 43.3223C48.5971 43.5325 48.7481 43.7795 48.8419 44.0479C48.9357 44.3164 48.9703 44.6004 48.9435 44.8822C48.9435 47.7557 48.9435 50.6155 48.9435 53.489C48.8987 53.9243 48.6957 54.3308 48.3698 54.6384L32.7638 73.2477C32.6044 73.5174 32.3664 73.7371 32.0787 73.8804C31.791 74.0237 31.466 74.0843 31.1429 74.055C26.4382 74.055 21.7478 74.055 17.043 74.055C17.4238 73.3174 17.9062 72.6318 18.4774 72.0162C24.6739 64.6546 30.8895 57.2884 37.1243 49.9177C37.4129 49.6392 37.6119 49.2879 37.698 48.9051C37.2939 48.2232 36.813 47.5854 36.2637 47.0031L18.9364 26.3687C18.2327 25.5909 17.5857 24.768 17 23.9057Z" fill="#AC1A2F"/>
<path d="M96.8667 24C97.5231 23.82 98.2092 23.7597 98.8891 23.8221C103.192 23.8221 107.639 23.7264 111.999 23.9042C111.329 24.8927 110.586 25.8347 109.776 26.723C103.752 33.9113 97.7225 41.0996 91.6885 48.2878C91.5971 48.3578 91.5216 48.4449 91.4667 48.5437C91.4118 48.6425 91.3786 48.751 91.3692 48.8624C91.3598 48.9739 91.3744 49.086 91.412 49.1919C91.4497 49.2979 91.5096 49.3953 91.5882 49.4783C97.6986 56.7989 103.838 64.0784 109.963 71.3716C110.729 72.1747 111.393 73.0611 111.942 74.0125C107.237 74.0125 102.532 74.0125 97.8277 74.0125C97.5458 74.049 97.259 74.0047 97.0036 73.8853C96.7482 73.7659 96.5358 73.5768 96.3933 73.342L80.5291 54.3359C79.9984 53.8159 80.1131 53.0633 80.0844 52.4065C80.0844 49.7657 80.0844 47.1111 80.0844 44.4702C80.0809 44.2499 80.1235 44.0311 80.2097 43.8267C80.2959 43.6223 80.424 43.4364 80.5865 43.2798L95.2602 25.7104C95.7476 25.1008 96.2848 24.5289 96.8667 24Z" fill="#AC1A2F"/>
<path d="M55.9986 62.9296C56.4002 62.4507 56.8449 61.8486 57.5764 61.9034C62.2047 61.9034 66.8282 61.9034 71.4469 61.9034C72.1497 61.9034 72.58 62.4644 72.9816 62.9159C77.4186 68.2068 81.8604 73.4886 86.307 78.7612C86.8233 79.4317 87.6123 80.1296 87.4832 80.9916C87.4832 85.4159 87.4832 89.8356 87.4832 94.2507C87.5394 95.4744 87.4963 96.7005 87.3541 97.9178C86.5444 97.1605 85.8008 96.3413 85.1308 95.4685L66.3548 73.2195C65.8723 72.593 65.34 72.0029 64.7627 71.4543C64.2893 71.2491 63.9881 71.687 63.7299 71.9743L44.0933 95.3864C43.3474 96.2621 42.6589 97.1789 41.8126 97.9999C41.6624 97.5582 41.5897 97.0959 41.5975 96.6316C41.5975 91.3225 41.5975 86.0134 41.5975 80.7179C41.5943 80.5029 41.6357 80.2895 41.7194 80.0898C41.8031 79.8902 41.9274 79.7084 42.0852 79.5548C46.723 73.9903 51.3608 68.4486 55.9986 62.9296Z" fill="#AC1A2F"/>
<path d="M1.14579 124.1H15.7378V131.282H9.58179V140.915H15.5098V148.04H9.58179V164H1.14579V124.1ZM34.7121 164H26.4471L26.0481 158.528H22.4571L22.0581 164H14.8191L19.3221 124.1H30.1521L34.7121 164ZM24.2811 135.329L23.0271 151.517H25.4781L24.2811 135.329ZM53.2215 164H45.5265L42.0495 147.299L42.2775 164H35.3235V124.1H43.3605L46.3815 139.319L46.2675 124.1H53.2215V164ZM67.0636 164H58.6276V131.282H54.2386V124.1H71.4526V131.282H67.0636V164ZM89.4855 164H81.2205L80.8215 158.528H77.2305L76.8315 164H69.5925L74.0955 124.1H84.9255L89.4855 164ZM79.0545 135.329L77.8005 151.517H80.2515L79.0545 135.329ZM104.925 142.853C107.262 144.335 108.003 146.273 108.003 149.123V156.875C108.003 161.891 105.609 164.285 100.593 164.285H97.116C92.157 164.285 89.706 161.891 89.706 156.875V148.724H97.857V156.875C97.857 157.331 98.085 157.502 98.541 157.502H99.054C99.51 157.502 99.738 157.331 99.738 156.875V149.921C99.738 149.294 99.51 149.009 98.997 148.667L92.784 144.734C90.39 143.252 89.706 141.371 89.706 138.464V131.225C89.706 126.209 92.157 123.815 97.116 123.815H100.479C105.495 123.815 107.946 126.209 107.946 131.225V138.806H99.738V131.225C99.738 130.769 99.567 130.598 99.111 130.598H98.598C98.199 130.598 97.971 130.769 97.971 131.225V137.666C97.971 138.236 98.199 138.578 98.655 138.863L104.925 142.853ZM121.569 164H113.133V150.947L107.547 124.1H116.268L117.864 136.925L119.574 124.1H127.155L121.569 150.491V164Z" fill="white"/>
</svg>
